<?xml version="1.0" standalone="no"?>
<!DOCTYPE svg PUBLIC "-//W3C//DTD SVG 20010904//EN"
 "http://www.w3.org/TR/2001/REC-SVG-20010904/DTD/svg10.dtd">
<svg version="1.0" xmlns="http://www.w3.org/2000/svg"
 width="700.000000pt" height="700.000000pt" viewBox="0 0 700.000000 700.000000"
 preserveAspectRatio="xMidYMid meet">
<metadata>
Created by potrace 1.14, written by Peter Selinger 2001-2017
</metadata>
<g transform="translate(0.000000,700.000000) scale(0.100000,-0.100000)"
fill="#000000" stroke="none">
<path d="M2140 5804 c-685 -388 -1244 -708 -1242 -712 1 -4 198 -121 438 -259
384 -223 438 -251 457 -242 100 52 1575 865 1585 873 9 9 12 123 10 528 l-3
516 -1245 -704z"/>
<path d="M3602 5989 l3 -523 795 -438 c437 -242 800 -442 806 -444 10 -4 863
482 887 505 4 4 -540 318 -1210 696 -670 379 -1233 698 -1251 708 l-32 19 2
-523z"/>
<path d="M2750 4879 c-410 -225 -748 -413 -753 -418 -10 -10 1470 -865 1498
-866 27 0 1508 856 1498 866 -6 6 -1318 731 -1483 819 -11 6 -239 -115 -760
-401z"/>
<path d="M780 3465 l0 -1446 38 21 c20 12 222 128 447 258 l410 237 0 930 0
930 -410 237 c-225 130 -427 246 -447 258 l-38 21 0 -1446z"/>
<path d="M5760 4651 l-445 -257 0 -929 0 -929 445 -257 445 -257 3 725 c1 398
1 1048 0 1443 l-3 718 -445 -257z"/>
<path d="M1892 3450 l3 -821 735 -406 c404 -223 741 -407 748 -410 9 -4 12
159 12 794 l0 800 -717 413 c-395 228 -733 423 -751 433 l-32 19 2 -822z"/>
<path d="M4348 3837 l-748 -431 0 -798 c0 -439 2 -798 5 -798 7 0 1479 810
1488 819 4 4 6 374 5 823 l-3 817 -747 -432z"/>
<path d="M1403 2137 c-248 -144 -449 -265 -445 -268 4 -4 538 -307 1187 -674
649 -367 1195 -676 1213 -687 l32 -20 0 540 0 540 -756 416 c-416 229 -762
416 -768 415 -6 0 -214 -118 -463 -262z"/>
<path d="M4357 1983 l-757 -417 0 -539 0 -538 53 29 c28 17 574 326 1212 687
638 361 1163 660 1167 663 7 7 -892 532 -910 532 -4 0 -348 -188 -765 -417z"/>
</g>
</svg>
